<svg xmlns="http://www.w3.org/2000/svg" viewBox="0 0 1024 1024" role="img" aria-labelledby="title desc">
  <title id="title">LiteLizard icon concept B</title>
  <desc id="desc">A simplified dark lizard and gold pen form a clean open circle.</desc>
  <defs>
    <linearGradient id="bg" x1="160" y1="110" x2="850" y2="900" gradientUnits="userSpaceOnUse">
      <stop stop-color="#fffdf8"/>
      <stop offset="1" stop-color="#f5f0e8"/>
    </linearGradient>
    <filter id="shadow" x="-20%" y="-20%" width="140%" height="150%">
      <feDropShadow dx="0" dy="22" stdDeviation="22" flood-color="#17202a" flood-opacity=".14"/>
    </filter>
  </defs>

  <rect x="72" y="60" width="880" height="880" rx="210" fill="url(#bg)" filter="url(#shadow)"/>

  <path fill="#0b1e29" d="M493 188c-127-28-248 48-298 176-51 131-13 288 88 386 76 74 177 103 276 78-91-5-170-48-217-117-58-86-66-204-20-292 35-67 93-107 157-113 61-6 106-18 119-51 13-34-30-56-105-67Z"/>
  <circle cx="482" cy="233" r="21" fill="#fffaf1"/>

  <path fill="none" stroke="#b57f13" stroke-width="24" stroke-linecap="round" d="M616 190c102 30 174 126 177 240 2 89-28 174-84 245"/>
  <path fill="#b57f13" d="m696 627 71 45-38 61-72-45 39-61Z"/>
  <path fill="#fffaf1" stroke="#b57f13" stroke-width="15" stroke-linejoin="round" d="m657 693 67 42-47 108-118 73 30-134 68-89Z"/>
  <path fill="#b57f13" d="m559 916 58-95 60 22-118 73Z"/>
</svg>
