<svg xmlns="http://www.w3.org/2000/svg" viewBox="0 0 1024 1024" role="img" aria-labelledby="title desc">
  <title id="title">LiteLizard icon concept C</title>
  <desc id="desc">Two bold arcs symbolize a lizard and a writing pen.</desc>
  <defs>
    <linearGradient id="bg" x1="140" y1="100" x2="880" y2="930" gradientUnits="userSpaceOnUse">
      <stop stop-color="#fffdf8"/>
      <stop offset="1" stop-color="#f2ede4"/>
    </linearGradient>
    <filter id="shadow" x="-20%" y="-20%" width="140%" height="150%">
      <feDropShadow dx="0" dy="22" stdDeviation="22" flood-color="#17202a" flood-opacity=".14"/>
    </filter>
  </defs>

  <rect x="72" y="60" width="880" height="880" rx="210" fill="url(#bg)" filter="url(#shadow)"/>

  <path fill="none" stroke="#0b1e29" stroke-width="118" stroke-linecap="round" d="M518 230c-159-23-292 92-300 253-8 173 119 313 285 322"/>
  <path fill="#0b1e29" d="M463 171c71-5 130 8 150 40 18 30-9 62-64 82l-79 24-7-146Z"/>
  <circle cx="527" cy="224" r="19" fill="#fffaf1"/>

  <path fill="none" stroke="#b57f13" stroke-width="32" stroke-linecap="round" d="M645 208c102 45 169 150 166 266-2 84-34 164-90 229"/>
  <path fill="#b57f13" d="m705 659 87 54-51 82-87-55 51-81Z"/>
  <path fill="#fffaf1" stroke="#b57f13" stroke-width="18" stroke-linejoin="round" d="m655 739 84 53-59 116-128 57 49-131 54-95Z"/>
  <circle cx="660" cy="847" r="15" fill="#b57f13"/>
  <path fill="none" stroke="#b57f13" stroke-width="13" stroke-linecap="round" d="m660 847-108 118"/>
</svg>
