<svg xmlns="http://www.w3.org/2000/svg" viewBox="0 0 215 220" role="img" aria-labelledby="title desc">
  <title id="title">LiteLizard faithful vector trace</title>
  <desc id="desc">A faithful transparent-background trace of the lizard and fountain pen from the supplied raster artwork.</desc>
  <defs>
    <linearGradient id="lizard-ink" x1="40" y1="46" x2="111" y2="199" gradientUnits="userSpaceOnUse">
      <stop stop-color="#102532"/>
      <stop offset=".56" stop-color="#0b1d29"/>
      <stop offset="1" stop-color="#07151f"/>
    </linearGradient>
    <linearGradient id="pen-gold" x1="125" y1="38" x2="163" y2="184" gradientUnits="userSpaceOnUse">
      <stop stop-color="#9f6d0a"/>
      <stop offset=".48" stop-color="#c28e1c"/>
      <stop offset="1" stop-color="#b37b0e"/>
    </linearGradient>
  </defs>

  <g id="lizard">
    <path
      fill="url(#lizard-ink)"
      d="M121.3 202.0
         C92.2 204.4 65.7 190.7 47.2 168.4
         C26.0 142.9 21.8 113.7 30.2 88.2
         C38.9 61.9 64.7 42.4 91.0 37.4
         C104.0 34.9 116.8 37.8 119.5 45.8
         C122.2 53.7 116.7 61.4 108.2 66.5
         C100.0 71.4 90.8 75.2 83.0 79.4
         C68.7 89.5 59.3 106.6 56.8 124.1
         C53.1 150.5 67.2 177.5 88.7 191.3
         C98.7 197.8 109.9 201.2 121.3 202.0Z"
    />
    <path
      fill="#fffaf1"
      d="M94.1 66.3
         C100.1 66.0 107.4 63.8 112.8 60.9
         C108.5 65.2 101.3 68.5 94.1 68.6
         C92.3 68.6 92.2 66.8 94.1 66.3Z"
    />
    <circle cx="87.8" cy="55.7" r="5.4" fill="#fffaf1"/>
    <circle cx="89.0" cy="54.6" r="1.25" fill="#d8d2c8" opacity=".45"/>
  </g>

  <g id="fountain-pen" fill="url(#pen-gold)" stroke="url(#pen-gold)">
    <path
      stroke="none"
      d="M119.6 36.3
         A84 84 0 0 1 171.2 170.7
         L164.1 165.2
         A75 75 0 0 0 158.0 67.0
         C147.0 56.0 129.0 39.0 119.6 36.3
         Z"
    />
    <g transform="translate(167.65 167.95) rotate(38)">
      <path
        stroke="none"
        d="M-4.5 -2
           H4.5
           V2
           H7
           V10
           H-7
           V2
           H-4.5Z"
      />
      <path
        fill="none"
        stroke-width="3.8"
        stroke-linejoin="round"
        d="M-7 10
           H7
           L9.5 33
           L0 49
           L-9.5 33Z"
      />
      <path
        fill="none"
        stroke-width="3"
        stroke-linecap="round"
        d="M0 47 V26"
      />
      <circle cx="0" cy="24.5" r="3.4" stroke="none"/>
    </g>
  </g>
</svg>
